<?xml version="1.0" encoding="UTF-8"?>
<svg width="70px" height="22px" viewBox="0 0 70 22" version="1.1" xmlns="http://www.w3.org/2000/svg" xmlns:xlink="http://www.w3.org/1999/xlink">
  <title>Logo</title>
    <style>
    #Patch-Grass {
      fill: #06C42A;
    }

    #Letters {
      fill: #004C05;
    }

    @media (prefers-color-scheme: dark) {
      #Letters {
        fill: #004C05;
      }
    }
  </style>
  <g id="Page-1" stroke="none" stroke-width="1" fill="none" fill-rule="evenodd">
    <g id="Logo" fill-rule="nonzero">
      <g id="Letters">
        <path d="M15.3023256,7.3255814 C14.8139535,4.28682171 12.4806202,2.17054264 9.27906977,1.89922481 C7.05426357,1.73643411 4.82945736,1.84496124 2.60465116,1.84496124 C1.03100775,1.84496124 0.162790698,2.65891473 0.162790698,4.28682171 C0.162790698,6.72868217 0.162790698,9.11627907 0.162790698,11.5581395 C0.162790698,14 0.162790698,16.4418605 0.162790698,18.8837209 C0.162790698,19.4263566 0.271317829,19.9147287 0.596899225,20.4031008 C1.13953488,21.1085271 2.11627907,21.4341085 2.98449612,21.1627907 C3.85271318,20.8914729 4.39534884,20.1317829 4.4496124,19.1007752 C4.4496124,18.0155039 4.50387597,16.9302326 4.4496124,15.8449612 C4.4496124,15.4108527 4.55813953,15.3023256 4.99224806,15.3023256 C6.56589147,15.3023256 8.19379845,15.4108527 9.76744186,15.0852713 C13.6744186,14.3255814 15.9534884,11.2325581 15.3023256,7.3255814 Z M8.30232558,11.4496124 C7.10852713,11.503876 5.91472868,11.4496124 4.7751938,11.503876 C4.50387597,11.503876 4.4496124,11.3410853 4.50387597,11.124031 C4.50387597,10.255814 4.50387597,9.44186047 4.50387597,8.57364341 C4.50387597,7.75968992 4.50387597,6.89147287 4.50387597,6.07751938 C4.50387597,5.80620155 4.55813953,5.64341085 4.88372093,5.64341085 C6.02325581,5.64341085 7.21705426,5.58914729 8.35658915,5.69767442 C10.1472868,5.80620155 11.124031,6.89147287 11.124031,8.57364341 C11.0697674,10.2015504 9.98449612,11.3410853 8.30232558,11.4496124 Z" id="Patch-P"></path>
        <path d="M28.379845,16.7131783 C28.379845,14.8682171 28.4883721,13.0232558 28.2713178,11.1782946 C28.0542636,8.57364341 26.4263566,6.8372093 23.9302326,6.34883721 C21.7054264,5.91472868 19.4806202,6.07751938 17.3100775,6.8372093 C16.2790698,7.21705426 15.7906977,8.13953488 16.1162791,9.0620155 C16.4418605,9.98449612 17.3643411,10.4186047 18.3953488,10.0930233 C19.4806202,9.76744186 20.620155,9.65891473 21.7596899,9.71317829 C23.496124,9.82170543 24.5271318,10.9612403 24.3100775,12.5348837 C24.1472868,12.4806202 23.9844961,12.4263566 23.8217054,12.372093 C21.8139535,11.8294574 19.751938,11.7209302 17.7984496,12.4263566 C16.0077519,13.0775194 14.9767442,14.4883721 14.9224806,16.3875969 C14.8682171,18.3953488 15.6821705,19.9689922 17.4186047,20.6744186 C19.751938,21.5968992 21.9767442,21.4341085 23.9844961,19.751938 C24.0930233,19.6976744 24.1472868,19.5348837 24.3643411,19.5348837 C24.3643411,19.9689922 24.3643411,20.4031008 24.3643411,20.8372093 C24.3643411,21.1085271 24.4186047,21.2170543 24.744186,21.2170543 C25.8294574,21.2170543 26.9147287,21.1627907 28.0542636,21.2170543 C28.4341085,21.2170543 28.4883721,21.0542636 28.4883721,20.7286822 C28.379845,19.4806202 28.379845,18.124031 28.379845,16.7131783 Z M24.3100775,16.496124 C23.9302326,17.744186 22.9534884,18.1782946 21.7596899,18.3410853 C21.5426357,18.3953488 21.379845,18.3410853 21.2713178,18.3410853 C20.8914729,18.3410853 20.5658915,18.3410853 20.2945736,18.2325581 C19.4263566,17.9612403 18.9922481,17.4728682 18.9379845,16.7131783 C18.8837209,15.8449612 19.2635659,15.1937984 20.1317829,14.8139535 C21.1085271,14.4341085 22.1395349,14.4341085 23.1705426,14.6511628 C23.2248062,14.6511628 23.3333333,14.7054264 23.3875969,14.7054264 C24.4186047,15.0310078 24.6356589,15.3565891 24.3100775,16.496124 Z" id="Patch-A"></path>
        <path d="M35.4341085,0.325581395 C34.7286822,0.759689922 34.620155,1.35658915 34.620155,1.95348837 C34.620155,3.25581395 34.620155,4.6124031 34.620155,5.91472868 C34.620155,6.24031008 34.7829457,6.29457364 35.0542636,6.29457364 C35.5968992,6.29457364 36.1395349,6.29457364 36.627907,6.34883721 C37.6046512,6.45736434 38.2015504,7.27131783 38.1472868,8.24806202 C38.0930233,9.2248062 37.3875969,9.87596899 36.3565891,9.87596899 C35.8682171,9.87596899 35.379845,9.87596899 34.9457364,9.87596899 C34.6744186,9.87596899 34.5658915,9.93023256 34.5658915,10.255814 C34.5658915,12.2635659 34.5658915,14.3255814 34.5658915,16.3333333 C34.5658915,17.255814 35.0542636,17.5813953 36.1395349,17.5271318 C37.0620155,17.4728682 37.7674419,17.9612403 37.9844961,18.7751938 C38.255814,19.5891473 37.875969,20.4573643 37.1162791,20.7829457 C35.5426357,21.4341085 33.8604651,21.4883721 32.2868217,20.8372093 C30.8217054,20.1860465 30.3875969,18.8294574 30.3333333,17.4186047 C30.2790698,15.0852713 30.2790698,12.8062016 30.3333333,10.4728682 C30.3333333,10.0930233 30.2790698,9.93023256 29.8449612,9.87596899 C29.0310078,9.82170543 28.4341085,9.00775194 28.4341085,8.13953488 C28.4341085,7.27131783 29.0310078,6.51162791 29.8449612,6.40310078 C30.2790698,6.34883721 30.3875969,6.18604651 30.3875969,5.75193798 C30.3875969,5.04651163 30.3333333,4.28682171 30.4418605,3.58139535 C30.7131783,1.89922481 31.9612403,1.03100775 33.4806202,0.542635659 C34.0775194,0.379844961 34.620155,0.217054264 35.4341085,0.325581395 Z" id="Patch-T"></path>
        <path d="M37.9302326,13.7286822 C37.9302326,8.95348837 41.9457364,5.48062016 46.6666667,6.13178295 C48.0775194,6.29457364 49.3255814,6.72868217 50.4651163,7.59689922 C51.3333333,8.30232558 51.5503876,9.3875969 50.8992248,10.255814 C50.3023256,11.0697674 49.1085271,11.2868217 48.1860465,10.6356589 C47.6976744,10.255814 47.1550388,9.93023256 46.5581395,9.76744186 C44.3333333,9.2248062 42.3255814,10.6899225 42.0542636,12.9689922 C41.8914729,14.2713178 42.1085271,15.4651163 42.9767442,16.4418605 C44.1705426,17.8527132 46.1782946,18.0697674 47.8604651,17.0930233 C48.0775194,16.9302326 48.2945736,16.7674419 48.5116279,16.6589147 C49.3255814,16.1162791 50.3565891,16.2248062 50.9534884,16.9302326 C51.5503876,17.6899225 51.496124,18.7209302 50.7364341,19.4263566 C49.5968992,20.4573643 48.2945736,21.0542636 46.7751938,21.2170543 C43.5736434,21.5968992 40.9147287,20.620155 39.0697674,17.8527132 C38.255814,16.6046512 37.875969,15.1937984 37.9302326,13.7286822 Z" id="Patch-C"></path>
        <path d="M65.6046512,11.2868217 C65.6046512,9.87596899 65.2790698,8.57364341 64.3023256,7.54263566 C62.4573643,5.58914729 59.1472868,5.58914729 57.1395349,7.48837209 C56.9224806,7.70542636 56.6511628,7.97674419 56.379845,8.30232558 C56.379845,6.51162791 56.379845,4.82945736 56.379845,3.09302326 C56.379845,2.11627907 56.1085271,1.08527132 57.0310078,0.325581395 C55.620155,0.325581395 54.4263566,0.651162791 53.3953488,1.57364341 C52.5813953,2.27906977 52.2015504,3.14728682 52.2015504,4.23255814 C52.2015504,9.93023256 52.2015504,15.627907 52.2015504,21.3255814 C53.6124031,21.3255814 55.0232558,21.3255814 56.4341085,21.3255814 C56.4341085,20.1317829 56.4341085,18.9379845 56.4341085,17.744186 C56.4341085,16.0077519 56.4341085,14.3255814 56.4341085,12.5891473 C56.4341085,11.2325581 57.1395349,10.255814 58.2248062,9.98449612 C59.9069767,9.60465116 61.1007752,10.3643411 61.4263566,12.1550388 L61.4263566,16.6046512 L61.9147287,17.255814 L61.9147287,17.255814 C61.9689922,17.3100775 62.0232558,17.3643411 62.0775194,17.4186047 C62.3488372,17.6899225 62.5116279,17.9612403 62.6744186,18.2868217 C63.0542636,18.8837209 63.2713178,19.5891473 63.5968992,20.3488372 C63.9767442,18.8837209 64.7364341,17.6899225 65.6589147,16.6046512 C65.6046512,14.8139535 65.6589147,13.0775194 65.6046512,11.2868217 Z" id="Patch-H"></path>
      </g>
      <path d="M69.3488372,17.3643411 C68.751938,17.744186 68.4263566,18.2868217 67.9922481,18.8294574 C68.2635659,17.8527132 68.8062016,16.9844961 69.620155,16.1162791 C68.0465116,16.9844961 67.2325581,18.3410853 66.6356589,20.9457364 C66.4728682,18.9379845 67.5581395,17.4186047 68.751938,15.9534884 C67.124031,16.9302326 66.255814,18.4496124 65.7131783,20.1860465 C65.7674419,18.5581395 66.4186047,17.2015504 67.6666667,16.1162791 C65.5503876,17.0387597 64.8449612,18.8837209 64.5193798,21 C64.5193798,18.8837209 65.3875969,17.2015504 67.0697674,15.7906977 C66.4728682,15.8992248 66.1472868,16.3333333 65.7131783,16.6046512 L65.7131783,16.6046512 C64.8449612,17.6899225 64.0852713,18.8837209 63.6511628,20.3488372 C63.3255814,19.5891473 63.1085271,18.8837209 62.7286822,18.2868217 C62.5116279,18.0155039 62.3488372,17.6899225 62.1317829,17.4186047 C62.0775194,17.3643411 62.0232558,17.3100775 61.9689922,17.255814 L61.9689922,17.255814 L61.4806202,16.6046512 L61.4806202,16.6046512 C61.0465116,16.3333333 60.8837209,15.8992248 60.3953488,15.8449612 C60.9922481,16.6046512 61.5348837,17.3643411 62.0232558,18.124031 C62.5116279,18.9379845 62.7829457,19.8062016 62.8914729,20.7829457 C62.8914729,20.8914729 63,21.0542636 62.7829457,21.0542636 C62.620155,21.0542636 62.620155,20.9457364 62.620155,20.8372093 C62.5658915,20.6744186 62.5658915,20.5116279 62.5116279,20.3488372 C62.1860465,18.9922481 61.6976744,17.744186 60.6666667,16.7131783 C60.4496124,16.496124 60.1782946,16.2248062 59.7984496,16.1705426 C60.7751938,17.4186047 61.4806202,18.8294574 61.6434109,20.4031008 C61.1007752,19.5348837 60.5581395,18.6666667 59.6356589,18.124031 C60.3410853,18.8294574 60.7751938,19.6976744 61.0465116,20.620155 C61.1550388,21.0542636 61.1007752,21.1627907 60.6666667,21.1085271 C60.503876,21.1085271 60.0697674,21 60.2868217,21.4341085 C63.1627907,21.4341085 66.0930233,21.4341085 68.9689922,21.4341085 C69.0232558,21.1085271 68.9147287,20.9457364 68.5891473,20.9457364 C67.9922481,20.9457364 67.9379845,20.8914729 68.1007752,20.2945736 C68.2093023,19.2635659 68.6434109,18.2325581 69.3488372,17.3643411 Z" id="Patch-Grass"></path>
    </g>
  </g>
</svg>